<?xml version="1.0" encoding="utf-8"?>
<!-- Generator: Adobe Illustrator 26.0.1, SVG Export Plug-In . SVG Version: 6.00 Build 0)  -->
<svg version="1.1" id="BROTHERHOOD" xmlns="http://www.w3.org/2000/svg" xmlns:xlink="http://www.w3.org/1999/xlink" x="0px"
	 y="0px" viewBox="0 0 70.87 70.87" style="enable-background:new 0 0 70.87 70.87;" xml:space="preserve">
<style type="text/css">
	.st0{fill:#FFFFFF;}
</style>
<g id="CAMADAS">
	<g>
		<path class="st0" d="M35.43,69.45C16.62,69.41,1.41,54.24,1.42,35.41c0.01-18.82,15.22-34,34.03-33.99
			c18.82,0.01,34.02,15.21,34,34.04C69.43,54.27,54.23,69.41,35.43,69.45z M66.39,35.43C66.43,18.37,52.53,4.48,35.47,4.46
			C18.38,4.45,4.48,18.33,4.46,35.4C4.45,52.49,18.34,66.38,35.42,66.39C52.5,66.4,66.42,52.51,66.39,35.43z"/>
		<path class="st0" d="M46.88,60.86c-0.13,0.07-0.18,0.11-0.24,0.13c-0.66,0.26-1.33,0.52-1.99,0.79c-0.16,0.06-0.27,0.03-0.39-0.09
			c-1.46-1.42-2.91-2.85-4.39-4.24c-1.16-1.09-2.36-2.14-3.55-3.19c-0.09-0.08-0.23-0.16-0.33-0.14c-1.82,0.19-3.59-0.11-5.36-0.48
			c-1.47-0.31-2.91-0.68-4.29-1.27c-1.69-0.72-3.21-1.71-4.68-2.8c-1.44-1.07-2.89-2.14-4.35-3.19c-0.55-0.39-1.14-0.72-1.71-1.08
			c-0.81-0.51-1.49-1.14-2.01-1.95c-0.24-0.37-0.41-0.76-0.47-1.2c-0.06-0.48,0.06-0.91,0.34-1.29c0.28-0.38,0.5-0.79,0.59-1.27
			c0.09-0.5,0.02-0.99-0.14-1.47c-0.17-0.51-0.36-1-0.54-1.51c-0.16-0.46-0.22-0.94-0.15-1.43c0.08-0.59,0.36-1.08,0.78-1.5
			c0.27-0.27,0.56-0.53,0.84-0.8c0.53-0.51,0.82-1.14,0.81-1.86c0-0.35-0.12-0.71-0.23-1.04c-0.12-0.34-0.3-0.66-0.44-0.99
			c-0.2-0.47-0.29-0.96-0.2-1.47c0.06-0.37,0.23-0.69,0.53-0.92c0.3-0.23,0.63-0.42,0.96-0.61c0.41-0.23,0.84-0.43,1.24-0.67
			c0.58-0.34,1.06-0.8,1.35-1.42c0.17-0.36,0.25-0.73,0.26-1.12c0.02-0.55,0.04-1.1,0.13-1.63c0.25-1.49,1.17-2.39,2.59-2.81
			c0.86-0.25,1.74-0.27,2.62-0.18c2.15,0.23,4.16,0.95,6.14,1.78c1.8,0.75,3.53,1.64,5.25,2.55c0.05,0.03,0.09,0.06,0.16,0.11
			c-0.07,0.07-0.12,0.12-0.18,0.17c-0.88,0.75-1.45,1.67-1.59,2.83c-0.09,0.68,0,1.34,0.37,1.94c0.09,0.14,0.05,0.21-0.07,0.3
			c-1.03,0.76-1.64,1.78-1.77,3.05c-0.15,1.48,0.23,2.79,1.39,3.8c0.11,0.1,0.12,0.18,0.04,0.3c-1.31,2.12-0.03,4.71,1.76,5.55
			c0.72,0.34,1.48,0.42,2.26,0.37c1.42-0.08,2.72-0.53,3.95-1.22c0.12-0.07,0.2-0.09,0.27,0.06c0.44,0.91,1.16,1.51,2.05,1.95
			c0.86,0.42,1.78,0.63,2.73,0.71c0.83,0.07,1.63-0.06,2.44-0.18c0.67-0.1,1.34-0.15,2.02-0.06c0.36,0.04,0.68,0.19,0.98,0.39
			c0.4,0.26,0.8,0.49,1.28,0.56c0.24,0.04,0.49,0.05,0.73,0.1c0.13,0.03,0.27,0.09,0.36,0.18c1.15,1.21,2.28,2.44,3.42,3.65
			c0.46,0.49,0.93,0.98,1.4,1.47c0.12,0.13,0.14,0.23,0.05,0.39c-1.48,2.67-3.34,5.04-5.59,7.11c-2.01,1.85-4.25,3.37-6.7,4.57
			c-0.24,0.12-0.38,0.09-0.58-0.08c-1.68-1.45-3.38-2.89-5.23-4.12c-0.64-0.43-1.34-0.77-2.01-1.15c-0.11-0.06-0.23-0.09-0.35-0.12
			c-0.13-0.03-0.25-0.01-0.3,0.14c-0.04,0.15,0.06,0.22,0.18,0.28c0.39,0.18,0.8,0.33,1.17,0.54c1.33,0.75,2.53,1.69,3.71,2.64
			c0.83,0.67,1.63,1.36,2.45,2.04C46.72,60.77,46.79,60.8,46.88,60.86z M18.29,31.61c-0.05,0.04-0.13,0.08-0.15,0.15
			c-0.05,0.14,0.05,0.21,0.17,0.26c0.84,0.35,1.67,0.7,2.52,1.03c0.42,0.17,0.85,0.3,1.27,0.45c0.61,0.22,1.15,0.54,1.61,1
			c0.14,0.14,0.32,0.27,0.5,0.36c0.06,0.03,0.22-0.01,0.28-0.08c0.08-0.09,0.02-0.2-0.09-0.27c-0.15-0.1-0.32-0.19-0.44-0.31
			c-0.52-0.55-1.17-0.88-1.87-1.12c-1.22-0.43-2.45-0.82-3.61-1.42C18.43,31.64,18.38,31.63,18.29,31.61z M16.92,37.81
			c-0.16,0.03-0.29,0.06-0.3,0.24c-0.01,0.16,0.11,0.2,0.25,0.23c0.26,0.06,0.52,0.1,0.76,0.21c0.69,0.32,1.36,0.67,2.04,1
			c0.1,0.05,0.2,0.12,0.3,0.12c0.08,0.01,0.21-0.06,0.23-0.11c0.02-0.08-0.03-0.22-0.09-0.25c-0.72-0.38-1.44-0.77-2.18-1.12
			C17.61,37.99,17.26,37.91,16.92,37.81z"/>
		<path class="st0" d="M35.37,54.96c-0.26,0.16-0.51,0.32-0.77,0.48c-1.84,1.19-3.59,2.52-5.32,3.85c-0.97,0.75-1.94,1.52-2.9,2.28
			c-0.17,0.14-0.32,0.16-0.52,0.09c-3.12-1.15-5.95-2.8-8.49-4.95c-2.45-2.08-4.48-4.51-6.1-7.29c-0.2-0.34-0.2-0.33,0.14-0.51
			c1.49-0.77,2.99-1.54,4.48-2.32c0.17-0.09,0.3-0.08,0.46,0.02c1.52,0.97,2.93,2.07,4.37,3.16c1.26,0.96,2.56,1.87,3.97,2.61
			c1.78,0.94,3.67,1.56,5.65,1.92c1.06,0.2,2.12,0.38,3.18,0.53c0.53,0.07,1.07,0.04,1.6,0.06c0.08,0,0.16,0,0.24,0
			C35.36,54.92,35.36,54.94,35.37,54.96z"/>
		<path class="st0" d="M39.06,32.21c0.02-0.07,0.03-0.12,0.05-0.15c0.28-0.5,0.29-1.03,0.14-1.56c-0.09-0.34-0.23-0.67-0.35-1
			c-0.17-0.44-0.51-0.67-0.96-0.7c-0.75-0.06-1.49-0.03-2.22,0.22c-0.15,0.05-0.29,0.11-0.42,0.19c-0.36,0.19-0.52,0.5-0.55,0.89
			c-0.04,0.57,0.11,1.11,0.37,1.6c0.25,0.49,0.54,0.95,0.84,1.41c0.1,0.15,0.09,0.21-0.06,0.32c-0.32,0.21-0.63,0.45-0.93,0.69
			c-0.13,0.1-0.21,0.11-0.33,0c-0.68-0.58-1.04-1.34-1.14-2.21c-0.21-1.88,0.78-3.41,2.58-4.08c1.46-0.54,2.93-1.07,4.37-1.66
			c1.24-0.51,2.46-1.08,3.68-1.66c0.85-0.4,1.66-0.89,2.51-1.28c0.88-0.4,1.82-0.64,2.81-0.62c0.5,0.01,0.98,0.12,1.44,0.31
			c0.4,0.17,0.74,0.42,0.98,0.78c0.78,1.14,1.15,2.38,0.97,3.76c-0.05,0.38-0.18,0.74-0.42,1.05c-0.05,0.06-0.17,0.12-0.23,0.1
			c-1.05-0.4-2.07-0.2-3.07,0.19c-0.83,0.32-1.62,0.74-2.46,1.03c-1.77,0.61-3.56,1.16-5.35,1.72c-0.66,0.21-1.33,0.39-2,0.59
			C39.23,32.18,39.16,32.19,39.06,32.21z M51.54,25.88c-0.01-0.66-0.17-1.25-0.73-1.67c-0.07-0.05-0.15-0.11-0.23-0.12
			c-0.07-0.01-0.18,0.03-0.21,0.08c-0.03,0.06-0.01,0.17,0.01,0.25c0.02,0.05,0.08,0.08,0.13,0.11c0.34,0.25,0.52,0.58,0.56,0.99
			c0.02,0.19,0.01,0.38,0.04,0.56c0.02,0.08,0.1,0.18,0.18,0.21c0.12,0.04,0.21-0.05,0.23-0.17C51.54,26.04,51.54,25.96,51.54,25.88
			z"/>
		<path class="st0" d="M37.92,40.19c-0.34-0.04-0.68-0.07-1.01-0.13c-1.37-0.25-2.35-1.62-2.49-2.84c-0.14-1.18,0.35-2.09,1.24-2.81
			c0.67-0.54,1.44-0.87,2.25-1.12c2.03-0.61,4.06-1.21,6.09-1.82c1.66-0.49,3.29-1.1,4.86-1.82c0.57-0.26,1.18-0.45,1.81-0.51
			c0.59-0.05,1.14,0.05,1.66,0.35c1.01,0.57,1.54,1.47,1.77,2.57c0.16,0.72,0.18,1.44-0.03,2.16c-0.06,0.2-0.16,0.25-0.38,0.28
			c-0.46,0.05-0.86-0.11-1.27-0.24c-0.53-0.17-1.08-0.31-1.64-0.33c-0.61-0.02-1.17,0.13-1.73,0.34c-1.09,0.42-2.16,0.89-3.29,1.19
			c-0.65,0.17-1.3,0.35-1.93,0.57c-0.35,0.12-0.7,0.31-1,0.53c-0.55,0.41-0.79,0.98-0.72,1.68c0.06,0.6,0.06,0.6-0.47,0.88
			c-0.99,0.53-2.04,0.9-3.16,1.02c-0.19,0.02-0.37,0.02-0.56,0.03C37.93,40.17,37.93,40.18,37.92,40.19z M38.69,34.12
			c-0.61,0.04-1.2,0.14-1.75,0.39c-0.47,0.22-0.79,0.56-0.85,1.09c-0.02,0.15-0.01,0.31,0.02,0.46c0.23,1.14,0.8,2.06,1.87,2.6
			c0.54,0.27,1.09,0.28,1.62-0.04c0.2-0.12,0.4-0.24,0.58-0.38c0.71-0.55,1.06-1.27,1-2.18c-0.06-0.91-0.52-1.51-1.4-1.75
			C39.43,34.22,39.05,34.19,38.69,34.12z M48.74,31.24c-0.08,0.08-0.19,0.13-0.19,0.2c-0.01,0.08,0.05,0.22,0.12,0.24
			c0.34,0.13,0.48,0.41,0.59,0.72c0.06,0.18,0.12,0.35,0.2,0.52c0.05,0.12,0.16,0.2,0.3,0.13c0.14-0.07,0.14-0.19,0.09-0.31
			c-0.08-0.22-0.13-0.45-0.24-0.65c-0.11-0.22-0.25-0.43-0.42-0.61C49.09,31.37,48.91,31.33,48.74,31.24z"/>
		<path class="st0" d="M30.92,18c0.11,0.53,0.42,0.99,0.66,1.54c-0.12-0.04-0.17-0.05-0.23-0.08c-0.85-0.34-1.7-0.68-2.55-1.01
			c-0.22-0.09-0.24-0.11-0.08-0.29c0.58-0.66,1.17-1.32,1.75-1.98c0.24-0.27,0.5-0.52,0.72-0.8c0.76-0.93,1.75-1.27,2.92-1.15
			c0.49,0.05,0.5,0.06,0.47,0.53c-0.03,0.57,0.23,0.98,0.73,1.2c0.3,0.13,0.63,0.22,0.95,0.24c1.36,0.08,2.65-0.22,3.86-0.85
			c0.27-0.14,0.52-0.34,0.74-0.55c0.13-0.12,0.21-0.31,0.27-0.48c0.05-0.14,0.11-0.16,0.24-0.13c0.68,0.17,1.22,0.77,1.34,1.5
			c0.14,0.87-0.11,1.65-0.62,2.34c-0.6,0.82-1.36,1.47-2.19,2.05c-1.06,0.73-2.2,1.29-3.39,1.75c-0.13,0.05-0.24,0.04-0.37-0.02
			c-1.38-0.69-2.77-1.38-4.15-2.08c-0.09-0.05-0.18-0.13-0.23-0.22c-0.23-0.45-0.44-0.91-0.66-1.37c-0.03-0.06-0.07-0.12-0.1-0.18
			C30.97,17.98,30.95,17.99,30.92,18z M38.42,19.07c-1.17,0.25-2.31,0.16-3.43-0.35C35.22,19.3,37.97,19.56,38.42,19.07z"/>
		<path class="st0" d="M44.76,36.46c-0.47,0.99,0.1,2.34,0.84,2.77c0.57,0.33,1.16,0.43,1.73,0.04c0.37-0.24,0.73-0.51,1.04-0.83
			c0.53-0.56,0.48-1.18-0.1-1.69c-0.5-0.43-1.1-0.63-1.75-0.7c-0.04,0-0.09-0.01-0.17-0.02c0.07-0.04,0.1-0.06,0.13-0.08
			c0.78-0.29,1.59-0.54,2.35-0.88c1.23-0.56,2.45-0.56,3.69-0.08c0.13,0.05,0.26,0.11,0.4,0.14c0.16,0.03,0.33,0.06,0.49,0.04
			c0.24-0.03,0.46,0,0.67,0.1c0.18,0.09,0.36,0.2,0.55,0.29c0.52,0.27,0.89,0.66,1.11,1.21c0.12,0.3,0.31,0.57,0.42,0.87
			c0.27,0.77,0.2,1.53-0.25,2.2c-0.34,0.51-0.77,0.96-1.15,1.45c-0.23,0.3-0.44,0.61-0.65,0.93c-0.06,0.09-0.12,0.13-0.22,0.09
			c-0.21-0.09-0.44-0.16-0.63-0.29c-0.84-0.62-1.78-0.75-2.77-0.65c-0.7,0.08-1.4,0.2-2.11,0.25c-1.63,0.11-3.17-0.15-4.47-1.21
			c-0.79-0.65-1.16-1.51-1.09-2.54c0.01-0.16,0.08-0.35,0.17-0.48C43.41,36.79,44.1,36.65,44.76,36.46z M53.38,38.4
			c0.01-0.17-0.08-0.31-0.21-0.31c-0.17,0-0.21,0.12-0.22,0.26c-0.04,0.57-0.23,1.07-0.59,1.52c-0.04,0.05-0.06,0.18-0.02,0.24
			c0.04,0.06,0.16,0.12,0.22,0.1c0.11-0.04,0.22-0.11,0.28-0.21C53.12,39.51,53.39,39,53.38,38.4z"/>
		<path class="st0" d="M41.31,25.06c-0.03-0.18-0.04-0.33-0.07-0.47c-0.15-0.87-0.77-1.4-1.69-1.48c-0.6-0.05-1.14,0.08-1.59,0.46
			c-0.35,0.29-0.68,0.61-0.96,0.97c-0.38,0.48-0.33,1.37,0.06,1.93c0.04,0.06,0.08,0.13,0.14,0.21c-0.09,0.04-0.15,0.08-0.22,0.11
			c-0.48,0.18-0.97,0.35-1.45,0.53c-0.15,0.06-0.22-0.01-0.28-0.12c-0.32-0.52-0.39-1.09-0.27-1.67c0.2-1.06,0.78-1.88,1.67-2.45
			c0.76-0.49,1.56-0.94,2.34-1.4c1.91-1.12,3.83-2.23,5.75-3.34c0.58-0.34,1.19-0.62,1.84-0.79c1.41-0.37,2.61,0.04,3.48,1.21
			c0.62,0.84,0.93,1.77,0.77,2.83c0,0.01,0,0.01,0,0.02c-0.1,0.51-0.1,0.51-0.6,0.42c-1.01-0.18-2-0.05-2.97,0.26
			c-1.06,0.33-2.04,0.85-3.02,1.38c-0.89,0.48-1.81,0.9-2.72,1.34C41.47,25.02,41.4,25.03,41.31,25.06z M46.61,19.5
			c-0.06,0.05-0.17,0.11-0.17,0.17c0,0.09,0.04,0.22,0.12,0.27c0.38,0.28,0.61,0.66,0.76,1.09c0.05,0.13,0.08,0.27,0.13,0.4
			c0.05,0.13,0.14,0.21,0.28,0.17c0.14-0.04,0.18-0.16,0.14-0.28c-0.11-0.32-0.22-0.64-0.37-0.95c-0.15-0.31-0.37-0.57-0.67-0.76
			C46.76,19.57,46.7,19.54,46.61,19.5z"/>
		<path class="st0" d="M37.42,29c0.09,0,0.18,0,0.27,0c0.49,0.01,0.88,0.19,1.05,0.69c0.13,0.4,0.28,0.79,0.36,1.2
			c0.1,0.52-0.08,0.98-0.4,1.38c-0.05,0.06-0.15,0.1-0.23,0.13c-0.67,0.24-1.34,0.49-2.02,0.72c-0.07,0.02-0.19,0-0.23-0.04
			c-0.61-0.77-1.1-1.61-1.25-2.6c-0.1-0.64,0.13-1.01,0.74-1.22C36.26,29.07,36.84,29.01,37.42,29z"/>
		<path class="st0" d="M39.13,13.96c0.63,0.05,1.1,0.08,1.57,0.12c0.24,0.02,0.3,0.13,0.18,0.33c-0.08,0.15-0.19,0.3-0.33,0.4
			c-0.29,0.2-0.59,0.39-0.92,0.53c-0.99,0.43-2.03,0.68-3.11,0.65c-0.36-0.01-0.73-0.09-1.07-0.21c-0.54-0.2-0.77-0.72-0.61-1.28
			c0.02-0.07,0.12-0.16,0.19-0.17C36.45,14.19,37.87,14.07,39.13,13.96z"/>
		<path class="st0" d="M41.05,24.92c0.05,0.19-0.07,0.28-0.26,0.35c-1.03,0.4-2.06,0.81-3.09,1.22c-0.25,0.1-0.28,0.09-0.43-0.12
			c-0.43-0.6-0.4-1.35,0.08-1.91c0.36-0.43,0.77-0.79,1.29-1.02C39.76,22.93,41.03,23.7,41.05,24.92z"/>
		<path class="st0" d="M45.9,36.27c0.66,0.04,1.25,0.12,1.81,0.39c0.94,0.46,1.05,1.16,0.29,1.86c-0.25,0.23-0.55,0.42-0.84,0.61
			c-0.39,0.25-0.8,0.23-1.2,0.04c-0.68-0.31-1.01-0.87-1.09-1.59c-0.02-0.18-0.02-0.37,0-0.56c0.04-0.4,0.29-0.66,0.69-0.71
			C45.68,36.29,45.81,36.28,45.9,36.27z"/>
		<path class="st0" d="M38.76,34.37c0.23,0.03,0.54,0.06,0.84,0.13c0.91,0.21,1.33,0.75,1.37,1.71c0.02,0.46-0.1,0.88-0.36,1.26
			c-0.36,0.52-0.86,0.87-1.43,1.1c-0.34,0.13-0.67,0.07-1-0.06c-0.49-0.2-0.89-0.53-1.19-0.96c-0.38-0.53-0.66-1.11-0.68-1.78
			c-0.01-0.41,0.17-0.73,0.52-0.95c0.42-0.25,0.89-0.36,1.38-0.42C38.36,34.39,38.53,34.39,38.76,34.37z"/>
	</g>
</g>
</svg>
